REM DIRINDEX 1\6,1\2\7,1\2\8,1\2\9,1\3\10,1\3\11,1\4\12,1\4\13,1\4\14,1\5\15,1\5\16,1\5\17
REM DIRNAME folder01,folder02,folder03,folder04,folder05,folder06,folder07,folder08,folder09,folder10,folder11,folder12,folder13,folder14,folder15,folder16,folder17
TITLE ""
FILE "3Q_j_1029-1044.mp3" MP3
  TRACK 01 AUDIO
    TITLE "12:cjc041_0386"
    INDEX 01 00:00:00
  TRACK 02 AUDIO
    TITLE "0:"
    INDEX 01 00:01:26
  TRACK 03 AUDIO
    TITLE "13:cjc041_0387"
    INDEX 01 00:02:02
  TRACK 04 AUDIO
    TITLE "0:"
    INDEX 01 00:03:61
  TRACK 05 AUDIO
    TITLE "14:cjc041_0388"
    INDEX 01 00:04:42
  TRACK 06 AUDIO
    TITLE "0:"
    INDEX 01 00:07:70
  TRACK 07 AUDIO
    TITLE "12:cjc041_0389"
    INDEX 01 00:08:48
  TRACK 08 AUDIO
    TITLE "0:"
    INDEX 01 00:10:06
  TRACK 09 AUDIO
    TITLE "13:cjc041_0390"
    INDEX 01 00:10:57
  TRACK 10 AUDIO
    TITLE "0:"
    INDEX 01 00:12:48
  TRACK 11 AUDIO
    TITLE "14:cjc041_0391"
    INDEX 01 00:13:26
  TRACK 12 AUDIO
    TITLE "0:"
    INDEX 01 00:16:73
  TRACK 13 AUDIO
    TITLE "12:cjc041_0392"
    INDEX 01 00:17:49
  TRACK 14 AUDIO
    TITLE "0:"
    INDEX 01 00:19:11
  TRACK 15 AUDIO
    TITLE "13:cjc041_0393"
    INDEX 01 00:19:60
  TRACK 16 AUDIO
    TITLE "0:"
    INDEX 01 00:23:24
  TRACK 17 AUDIO
    TITLE "14:cjc041_0394"
    INDEX 01 00:23:71
  TRACK 18 AUDIO
    TITLE "0:"
    INDEX 01 00:27:04
  TRACK 19 AUDIO
    TITLE "12:cjc041_0395"
    INDEX 01 00:27:59
  TRACK 20 AUDIO
    TITLE "0:"
    INDEX 01 00:29:23
  TRACK 21 AUDIO
    TITLE "13:cjc041_0396"
    INDEX 01 00:30:03
  TRACK 22 AUDIO
    TITLE "0:"
    INDEX 01 00:31:31
  TRACK 23 AUDIO
    TITLE "14:cjc041_0397"
    INDEX 01 00:32:09
  TRACK 24 AUDIO
    TITLE "0:"
    INDEX 01 00:35:21
  TRACK 25 AUDIO
    TITLE "12:cjc041_0398"
    INDEX 01 00:36:05
  TRACK 26 AUDIO
    TITLE "0:"
    INDEX 01 00:37:57
  TRACK 27 AUDIO
    TITLE "13:cjc041_0399"
    INDEX 01 00:38:30
  TRACK 28 AUDIO
    TITLE "0:"
    INDEX 01 00:40:48
  TRACK 29 AUDIO
    TITLE "14:cjc041_0400"
    INDEX 01 00:41:20
  TRACK 30 AUDIO
    TITLE "0:"
    INDEX 01 00:44:69
  TRACK 31 AUDIO
    TITLE "12:cjc041_0401"
    INDEX 01 00:45:49
  TRACK 32 AUDIO
    TITLE "0:"
    INDEX 01 00:47:30
  TRACK 33 AUDIO
    TITLE "13:cjc041_0402"
    INDEX 01 00:48:14
  TRACK 34 AUDIO
    TITLE "0:"
    INDEX 01 00:50:13
  TRACK 35 AUDIO
    TITLE "14:cjc041_0403"
    INDEX 01 00:50:68
  TRACK 36 AUDIO
    TITLE "0:"
    INDEX 01 00:54:38
  TRACK 37 AUDIO
    TITLE "12:cjc041_0404"
    INDEX 01 00:55:20
  TRACK 38 AUDIO
    TITLE "0:"
    INDEX 01 00:56:53
  TRACK 39 AUDIO
    TITLE "13:cjc041_0405"
    INDEX 01 00:57:41
  TRACK 40 AUDIO
    TITLE "0:"
    INDEX 01 00:59:20
  TRACK 41 AUDIO
    TITLE "14:cjc041_0406"
    INDEX 01 01:00:02
  TRACK 42 AUDIO
    TITLE "0:"
    INDEX 01 01:03:08
  TRACK 43 AUDIO
    TITLE "12:cjc041_0407"
    INDEX 01 01:03:69
  TRACK 44 AUDIO
    TITLE "0:"
    INDEX 01 01:05:69
  TRACK 45 AUDIO
    TITLE "13:cjc041_0408"
    INDEX 01 01:06:53
  TRACK 46 AUDIO
    TITLE "0:"
    INDEX 01 01:08:54
  TRACK 47 AUDIO
    TITLE "14:cjc041_0409"
    INDEX 01 01:09:32
  TRACK 48 AUDIO
    TITLE "0:"
    INDEX 01 01:12:03
  TRACK 49 AUDIO
    TITLE "12:cjc041_0410"
    INDEX 01 01:12:60
  TRACK 50 AUDIO
    TITLE "0:"
    INDEX 01 01:16:03
  TRACK 51 AUDIO
    TITLE "13:cjc041_0411"
    INDEX 01 01:16:63
  TRACK 52 AUDIO
    TITLE "0:"
    INDEX 01 01:18:60
  TRACK 53 AUDIO
    TITLE "14:cjc041_0412"
    INDEX 01 01:19:42
  TRACK 54 AUDIO
    TITLE "0:"
    INDEX 01 01:24:34
  TRACK 55 AUDIO
    TITLE "12:cjc041_0413"
    INDEX 01 01:25:11
  TRACK 56 AUDIO
    TITLE "0:"
    INDEX 01 01:26:52
  TRACK 57 AUDIO
    TITLE "13:cjc041_0414"
    INDEX 01 01:27:32
  TRACK 58 AUDIO
    TITLE "0:"
    INDEX 01 01:28:51
  TRACK 59 AUDIO
    TITLE "14:cjc041_0415"
    INDEX 01 01:29:31
  TRACK 60 AUDIO
    TITLE "0:"
    INDEX 01 01:34:08
  TRACK 61 AUDIO
    TITLE "12:cjc041_0416"
    INDEX 01 01:34:59
  TRACK 62 AUDIO
    TITLE "0:"
    INDEX 01 01:36:41
  TRACK 63 AUDIO
    TITLE "13:cjc041_0417"
    INDEX 01 01:37:24
  TRACK 64 AUDIO
    TITLE "0:"
    INDEX 01 01:38:34
  TRACK 65 AUDIO
    TITLE "14:cjc041_0418"
    INDEX 01 01:39:14
  TRACK 66 AUDIO
    TITLE "0:"
    INDEX 01 01:43:51
  TRACK 67 AUDIO
    TITLE "12:cjc041_0419"
    INDEX 01 01:44:30
  TRACK 68 AUDIO
    TITLE "0:"
    INDEX 01 01:46:43
  TRACK 69 AUDIO
    TITLE "13:cjc041_0420"
    INDEX 01 01:47:15
  TRACK 70 AUDIO
    TITLE "0:"
    INDEX 01 01:49:12
  TRACK 71 AUDIO
    TITLE "14:cjc041_0421"
    INDEX 01 01:49:61
  TRACK 72 AUDIO
    TITLE "0:"
    INDEX 01 01:53:14
  TRACK 73 AUDIO
    TITLE "12:cjc041_0422"
    INDEX 01 01:53:67
  TRACK 74 AUDIO
    TITLE "0:"
    INDEX 01 01:56:04
  TRACK 75 AUDIO
    TITLE "13:cjc041_0423"
    INDEX 01 01:56:55
  TRACK 76 AUDIO
    TITLE "0:"
    INDEX 01 01:58:64
  TRACK 77 AUDIO
    TITLE "14:cjc041_0424"
    INDEX 01 01:59:44
  TRACK 78 AUDIO
    TITLE "0:"
    INDEX 01 02:03:30
  TRACK 79 AUDIO
    TITLE "12:cjc041_0425"
    INDEX 01 02:04:12
  TRACK 80 AUDIO
    TITLE "0:"
    INDEX 01 02:05:64
  TRACK 81 AUDIO
    TITLE "13:cjc041_0426"
    INDEX 01 02:06:38
  TRACK 82 AUDIO
    TITLE "0:"
    INDEX 01 02:07:65
  TRACK 83 AUDIO
    TITLE "14:cjc041_0427"
    INDEX 01 02:08:45
  TRACK 84 AUDIO
    TITLE "0:"
    INDEX 01 02:12:03
  TRACK 85 AUDIO
    TITLE "12:cjc041_0428"
    INDEX 01 02:12:54
  TRACK 86 AUDIO
    TITLE "0:"
    INDEX 01 02:14:02
  TRACK 87 AUDIO
    TITLE "13:cjc041_0429"
    INDEX 01 02:14:55
  TRACK 88 AUDIO
    TITLE "0:"
    INDEX 01 02:16:56
  TRACK 89 AUDIO
    TITLE "14:cjc041_0430"
    INDEX 01 02:17:32
  TRACK 90 AUDIO
    TITLE "0:"
    INDEX 01 02:20:50
  TRACK 91 AUDIO
    TITLE "12:cjc041_0431"
    INDEX 01 02:21:32
  TRACK 92 AUDIO
    TITLE "0:"
    INDEX 01 02:22:56
  TRACK 93 AUDIO
    TITLE "13:cjc041_0432"
    INDEX 01 02:23:38
  TRACK 94 AUDIO
    TITLE "0:"
    INDEX 01 02:25:21
  TRACK 95 AUDIO
    TITLE "14:cjc041_0433"
    INDEX 01 02:26:01
  TRACK 96 AUDIO
    TITLE "0:"
    INDEX 01 02:30:32
